<svg xmlns="http://www.w3.org/2000/svg" fill="none" viewBox="0 0 20 21">
  <path fill="#4285F4" d="M18.788 10.791c0-.598-.053-1.166-.144-1.719h-8.557v3.416h4.9c-.22 1.12-.864 2.067-1.818 2.71v2.272h2.923c1.711-1.582 2.696-3.915 2.696-6.679Z"/>
  <path fill="#34A853" d="M10.087 19.674c2.454 0 4.506-.818 6.005-2.204L13.169 15.2c-.818.545-1.855.878-3.082.878-2.37 0-4.377-1.598-5.096-3.756H1.977v2.34c1.492 2.968 4.559 5.013 8.11 5.013Z"/>
  <path fill="#FBBC05" d="M4.99 12.321a5.273 5.273 0 0 1-.287-1.734c0-.606.106-1.189.288-1.734v-2.34H1.977a8.981 8.981 0 0 0 0 8.148l3.014-2.34Z"/>
  <path fill="#EA4335" d="M10.087 5.097c1.34 0 2.537.462 3.483 1.363l2.59-2.59c-1.567-1.469-3.62-2.37-6.073-2.37-3.551 0-6.618 2.045-8.11 5.013l3.014 2.34c.72-2.158 2.726-3.756 5.096-3.756Z"/>
</svg>
